<mxfile host="app.diagrams.net" modified="2023-11-29T11:56:10.498Z" agent="Mozilla/5.0 (Windows NT 10.0; Win64; x64; rv:120.0) Gecko/20100101 Firefox/120.0" version="22.1.4" etag="qDLFn04B_XN9CamOrdhX" type="github">
  <diagram name="Page-1" id="ac4nBVaKEPxHlnh8J1N9">
    <mxGraphModel>
      <root>
        <mxCell id="0" />
        <mxCell id="1" parent="0" />
      </root>
    </mxGraphModel>
  </diagram>
</mxfile>
